<svg xmlns="http://www.w3.org/2000/svg" viewBox="0 0 128.65 115.23"><defs><style>.a{fill:#fff;}.b{fill:#e20074;}</style></defs><title>корзина белая</title><path class="a" d="M-215.78,349.67l-1.95,7.7h-90.78c-2.09-25.33-4.17-50.58-6.27-76.05h-16.29v-7.71h23.53c2.1,25.22,4.2,50.5,6.33,76.06Z" transform="translate(331.07 -273.61)"/><path class="b" d="M-238.61,318.45h-28.81V300.77h28.81Z" transform="translate(331.07 -273.61)"/><path class="a" d="M-229.37,364.92a12.06,12.06,0,0,1,12.11,11.88,12.13,12.13,0,0,1-12,12,12.08,12.08,0,0,1-12.09-11.9A12,12,0,0,1-229.37,364.92Z" transform="translate(331.07 -273.61)"/><path class="a" d="M-281.23,376.82a11.91,11.91,0,0,1-11.89,12,11.86,11.86,0,0,1-11.95-11.93,11.78,11.78,0,0,1,11.87-12A11.8,11.8,0,0,1-281.23,376.82Z" transform="translate(331.07 -273.61)"/><path class="a" d="M-238.62,292.55h-28.85V277.42h28.85Z" transform="translate(331.07 -273.61)"/><path class="a" d="M-238.53,326.61v15h-28.89v-15Z" transform="translate(331.07 -273.61)"/><path class="a" d="M-230.62,292.58V277.44h28.2c-1,5.07-2,10.08-3,15.14Z" transform="translate(331.07 -273.61)"/><path class="b" d="M-299,300.69h23.52v17.77h-21.77C-297.86,312.53-298.44,306.67-299,300.69Z" transform="translate(331.07 -273.61)"/><path class="b" d="M-207,300.67H-230.6v17.9h19.06a2.38,2.38,0,0,0,1.83-1.93C-209.27,314.89-207,300.67-207,300.67Z" transform="translate(331.07 -273.61)"/><path class="a" d="M-299.82,292.5c-.5-5.11-1-10-1.47-15.06h25.8V292.5Z" transform="translate(331.07 -273.61)"/><path class="a" d="M-295,341.6c-.51-5-1-9.94-1.53-15h21.07v15Z" transform="translate(331.07 -273.61)"/><path class="a" d="M-212,326.61H-230.6v15.33h15a1.92,1.92,0,0,0,1.44-1.65C-213.84,338.79-212,326.61-212,326.61Z" transform="translate(331.07 -273.61)"/></svg>