<svg xmlns="http://www.w3.org/2000/svg" viewBox="0 0 128.65 115.23"><defs><style>.a{fill:#303030;}.b{fill:#e20074;}</style></defs><title>корзина темная</title><path class="a" d="M-74.29,400.47l-1.95,7.71H-167c-2.09-25.34-4.17-50.58-6.27-76.06h-16.29v-7.7H-166c2.1,25.21,4.2,50.5,6.33,76.05Z" transform="translate(189.58 -324.42)"/><path class="b" d="M-97.12,369.25h-28.81V351.57h28.81Z" transform="translate(189.58 -324.42)"/><path class="a" d="M-87.88,415.73A12.05,12.05,0,0,1-75.77,427.6a12.13,12.13,0,0,1-12,12,12.09,12.09,0,0,1-12.1-11.9A12,12,0,0,1-87.88,415.73Z" transform="translate(189.58 -324.42)"/><path class="a" d="M-139.74,427.63a11.91,11.91,0,0,1-11.89,12,11.85,11.85,0,0,1-12-11.92,11.77,11.77,0,0,1,11.87-12A11.79,11.79,0,0,1-139.74,427.63Z" transform="translate(189.58 -324.42)"/><path class="a" d="M-97.13,343.36H-126V328.22h28.85Z" transform="translate(189.58 -324.42)"/><path class="a" d="M-97,377.41v15h-28.89v-15Z" transform="translate(189.58 -324.42)"/><path class="a" d="M-89.14,343.38V328.25h28.21c-1,5.07-2,10.08-3,15.13Z" transform="translate(189.58 -324.42)"/><path class="b" d="M-157.54,351.5H-134v17.76h-21.77C-156.37,363.34-156.95,357.48-157.54,351.5Z" transform="translate(189.58 -324.42)"/><path class="b" d="M-65.49,351.48H-89.11v17.89H-70a2.36,2.36,0,0,0,1.83-1.92C-67.78,365.7-65.49,351.48-65.49,351.48Z" transform="translate(189.58 -324.42)"/><path class="a" d="M-158.33,343.31c-.5-5.12-1-10-1.47-15.07H-134v15.07Z" transform="translate(189.58 -324.42)"/><path class="a" d="M-153.5,392.41c-.51-5-1-9.94-1.54-15H-134v15Z" transform="translate(189.58 -324.42)"/><path class="a" d="M-70.55,377.41H-89.11v15.34h15a1.92,1.92,0,0,0,1.44-1.65C-72.35,389.6-70.55,377.41-70.55,377.41Z" transform="translate(189.58 -324.42)"/></svg>