<svg xmlns="http://www.w3.org/2000/svg" viewBox="0 0 208.78 94.79"><defs><style>.a,.b{fill:#303030;}.a{stroke:#303030;stroke-miterlimit:10;}.c{fill:#e20074;}</style></defs><title>машина темная</title><path class="a" d="M-133.06,103q16.45-.13,32.92-.21,8.39,0,16.79,0c6.29,0,13.23,1.29,17.48,6.47,7,8.57,13.38,17.7,20.14,26.52a10.56,10.56,0,0,0,4,3c6.36,2.78,12.86,5.21,19.21,8,5,2.22,8.12,6,8.15,11.81,0,7,.32,14.06.08,21.08-.28,8.08-4.36,10.89-12.43,9.08.91-15.14-6.09-24.91-18.54-25.74a19.22,19.22,0,0,0-13.89,4.52c-6.65,5.5-8.61,12.8-7.06,21.15h-68.08c.36-16.14-7.48-26-20.27-25.69a19.51,19.51,0,0,0-14.65,6.87,19.31,19.31,0,0,0-4.42,19.2c-2.63,0-4.91,0-7.19,0-5.74.12-8.18-2.93-7-8.85a26.78,26.78,0,0,0,2.67-.52,10.06,10.06,0,0,0,6.94-9,10.2,10.2,0,0,0-7-9c-4.35-1.18-4.57-1.61-3.24-6.68,1.39,0,2.87,0,4.36,0a30.67,30.67,0,0,0,4.49-.27,9.22,9.22,0,0,0,7.87-8.45,9,9,0,0,0-6.94-9.53c-3.1-.69-6.36-.65-9.52-.95-.26-5.89-.26-5.88,5-5.88,4.05,0,8.12.13,12.15-.09,5.12-.27,8.49-3.47,9.14-8.33a8.88,8.88,0,0,0-6.19-9.69,19.93,19.93,0,0,0-5.8-.56c-3.85-.08-7.7,0-11.66,0,1.14-5.65,3.63-7.72,9.19-7.76Q-154.68,103.21-133.06,103ZM-53,137.34c-5-8.21-10.07-15.51-16.7-21.53a12.34,12.34,0,0,0-6.66-3.09c-5.27-.45-10.62,0-15.93-.17-2.59-.06-3.48,1-3.39,3.47.14,5.89.19,11.81,0,17.68-.08,3,.89,4,4,4,11.81-.15,23.57-.06,35.36-.07A22.56,22.56,0,0,0-53,137.34Z" transform="translate(222.45 -102.26)"/><path class="b" d="M-32.62,183.42A13.77,13.77,0,0,1-46.07,197c-8.08.05-14.22-5.77-14.2-13.45,0-8.33,5.65-14.16,13.75-14.18S-32.64,175.24-32.62,183.42Z" transform="translate(222.45 -102.26)"/><path class="b" d="M-168.11,183c.25-8.43,6.3-13.93,15-13.63,7.41.26,13.12,6.65,12.87,14.37A14.09,14.09,0,0,1-154.77,197,13.94,13.94,0,0,1-168.11,183Z" transform="translate(222.45 -102.26)"/><path class="c" d="M-194.86,124.37c-7.39,0-14.78,0-22.17,0-2.82,0-5.37-.54-5.42-3.86s2.43-4.13,5.26-4.13h45.38c2.64,0,4.63,1,4.68,3.92,0,3.15-2.09,4-4.87,4h-22.86Z" transform="translate(222.45 -102.26)"/><path class="c" d="M-193.83,149.47h-12.5c-2.72,0-4.47-1.14-4.48-4.06s1.75-3.72,4.32-3.71q12.3,0,24.59,0c2.89,0,4.73,1,4.62,4.2s-2.21,3.63-4.8,3.59c-3.92-.07-7.85,0-11.8,0Z" transform="translate(222.45 -102.26)"/><path class="c" d="M-192.73,174.5c-1.84,0-3.69.08-5.56,0-2.31-.13-4-1.65-3.62-3.73.29-1.49,2.12-3.6,3.51-3.8a54.9,54.9,0,0,1,11-.13,3.52,3.52,0,0,1,3.53,3.93c-.06,2.36-1.47,3.56-3.73,3.7-1.72.11-3.47,0-5.19,0Z" transform="translate(222.45 -102.26)"/></svg>