<svg xmlns="http://www.w3.org/2000/svg" viewBox="0 0 137.76 133.26"><defs><style>.a{fill:#fff;}.b{fill:#303030;}.c{fill:#e20074;}</style></defs><title>карта темная</title><rect class="a" x="64.09" y="9" width="54" height="48"/><path class="b" d="M-121.12,399.21c-6.28,0-12.55,0-18.83,0l-.18,1.16q33.5,14.17,67,28.32c2.37,1,5.48,2.78,7.28,2C-62,429-58.66,426-55.32,423.22c.56-.45.31-2.15.13-3.22-1-5.9-2-13.81-3.28-19.65m-1.82-9.27s5.26-.16,8.28-.16c1.93,10,3.83,19.73,5.7,29.51,1.1,5.71,2.21,11.42,3.18,17.16,1.78,10.59-5.34,19.18-16.13,19.26-14.83.12-29.67,0-44.51,0h-76.85c1.56-10.79,3-21,4.53-31.14,1.54-10.37,3.3-20.7,4.63-31.09.39-3,1.46-3.85,4.37-3.82,15.33.12,30.67.06,46,.05m-37.24,57.91c23,0,44.74,0,66.51,0a5.08,5.08,0,0,0,2.74-.94c4.73-3.35,9.4-6.78,14.11-10.21-.39-.49-.53-.85-.78-.95-16.82-7.13-33.64-14.28-50.53-21.23a4.6,4.6,0,0,0-4.07,1.19C-139.49,426.94-148.47,437.41-158.32,448.8Zm-5.44-49.49c-2.52,16.83-5,33-7.38,49.15l1.45.93,33.31-38.68Zm89,48.5.48,1c5.13,0,10.27.15,15.4,0a7.72,7.72,0,0,0,7.73-8.91c-.24-2.51-.91-5-1.51-8.1Z" transform="translate(180.62 -323.65)"/><path class="c" d="M-90.6,417.73c-7.34-7.21-14.5-14.22-21.64-21.26-2.9-2.85-5.8-5.72-8.58-8.69A4.6,4.6,0,0,1-122,385q-.09-29.87,0-59.73c0-.49.06-1,.1-1.59h62.43V326c0,19.48,0,39,0,58.43a5.09,5.09,0,0,1-1.17,3.26c-9.67,9.87-19.42,19.63-29.15,29.43A7.69,7.69,0,0,1-90.6,417.73Zm-9.83-79.5a15.2,15.2,0,0,0-2.5-1c-.93-.14-1.9.06-2.83-.05-1.89-.22-2.54.48-2.51,2.43.11,5.73,0,11.48.06,17.22s-1,4.85,5.11,5c1.53,0,2-.53,2-2-.07-4.72,0-9.45,0-14.17,0-.72.25-1.94.65-2.07,1.45-.46,3.13-1,4.5-.61.76.2,1.46,2.06,1.52,3.21.2,3.55.07,7.12.07,10.68,0,5.12,0,5.07,5.09,5,1.49,0,2.05-.47,2-2-.07-4.8.08-9.6-.08-14.39-.06-1.95.8-2.59,2.44-2.85,3-.48,4.34.62,4.41,3.77.09,3.49,0,7,0,10.47,0,5.27,0,5.27,5.31,5,.08,0,.18,0,.22,0,.52-.52,1.47-1,1.48-1.56,0-5.24.14-10.47-.19-15.68-.37-6-4.24-8.8-10.13-7.62a28.59,28.59,0,0,0-3.81,1.53c-.54.2-1.39.48-1.7.22C-93,335.7-96.86,336.53-100.43,338.23Zm9.85,29.58c-5.14,0-10.29.06-15.44,0-1.72,0-2.43.52-2.22,2.23a7.32,7.32,0,0,1,0,1.75c-.21,1.77.46,2.38,2.3,2.37,9.5-.09,19,0,28.5-.06,4.43,0,4,.79,4.08-4,0-1.68-.43-2.29-2.21-2.25C-80.57,367.88-85.57,367.81-90.58,367.81Z" transform="translate(180.62 -323.65)"/></svg>