<svg xmlns="http://www.w3.org/2000/svg" viewBox="0 0 137.76 133.26"><defs><style>.a{fill:#fff;}.b{fill:#e20074;}</style></defs><title>карта белая</title><rect class="a" x="64.09" y="9" width="54" height="48"/><path class="a" d="M-124.58,218.56c-6.28,0-12.56,0-18.83,0l-.18,1.16q33.5,14.18,67,28.32c2.36,1,5.48,2.78,7.28,2,3.87-1.7,7.18-4.74,10.53-7.47.56-.45.3-2.15.12-3.22-1-5.9-2-13.82-3.27-19.65m-1.82-9.27s5.26-.17,8.28-.17c1.93,10,3.83,19.74,5.7,29.51,1.09,5.72,2.21,11.43,3.17,17.17,1.79,10.58-5.33,19.17-16.12,19.26-14.84.12-29.68,0-44.51,0h-76.86c1.57-10.78,3-21,4.53-31.14,1.55-10.36,3.3-20.69,4.64-31.08.39-3,1.45-3.85,4.36-3.83,15.34.12,30.68.07,46,.06m-37.24,57.91c23,0,44.74,0,66.52,0a5.19,5.19,0,0,0,2.74-.94c4.73-3.35,9.4-6.79,14.11-10.21-.39-.49-.54-.85-.79-.95-16.82-7.13-33.63-14.28-50.52-21.24a4.68,4.68,0,0,0-4.08,1.19C-142.95,246.29-151.93,256.76-161.79,268.15Zm-5.43-49.49c-2.53,16.83-5,33-7.38,49.15l1.44.93,33.32-38.68Zm89,48.5.47,1c5.14,0,10.28.15,15.41-.05s8.22-3.92,7.73-8.9c-.25-2.51-.91-5-1.51-8.1Z" transform="translate(184.09 -143)"/><path class="b" d="M-94.07,237.08c-7.34-7.21-14.5-14.22-21.64-21.26-2.89-2.86-5.79-5.72-8.57-8.69a4.57,4.57,0,0,1-1.21-2.82q-.11-29.85-.05-59.73c0-.49.07-1,.11-1.58H-63v2.38c0,19.48,0,39,0,58.43a5.05,5.05,0,0,1-1.17,3.26c-9.66,9.86-19.41,19.63-29.14,29.43A7.81,7.81,0,0,1-94.07,237.08Zm-9.82-79.5a15.2,15.2,0,0,0-2.5-1c-.93-.14-1.9.05-2.83,0-1.89-.22-2.55.47-2.51,2.42.11,5.74,0,11.49,0,17.23s-1,4.85,5.11,5c1.54,0,2-.53,2-2-.07-4.72-.06-9.45,0-14.17,0-.72.24-1.94.65-2.07,1.45-.46,3.13-1,4.49-.62.76.2,1.46,2.07,1.53,3.22.19,3.55.07,7.12.07,10.68,0,5.12,0,5.07,5.08,5,1.49,0,2.05-.47,2-2-.08-4.8.08-9.6-.08-14.4-.07-1.94.8-2.58,2.43-2.84,3-.48,4.34.62,4.42,3.77.08,3.49,0,7,0,10.47,0,5.27,0,5.27,5.32,5,.07,0,.17,0,.21,0,.52-.52,1.48-1,1.48-1.56.05-5.24.14-10.47-.18-15.68-.38-6-4.25-8.8-10.13-7.62a29.26,29.26,0,0,0-3.82,1.53c-.53.2-1.38.47-1.69.22C-96.51,155.05-100.32,155.88-103.89,157.58ZM-94,187.16c-5.15,0-10.3.06-15.44,0-1.72,0-2.43.52-2.22,2.23a7.32,7.32,0,0,1,0,1.75c-.22,1.77.46,2.38,2.3,2.37,9.5-.09,19,0,28.49-.06,4.44,0,4,.79,4.09-4,0-1.68-.44-2.29-2.21-2.25C-84,187.23-89,187.16-94,187.16Z" transform="translate(184.09 -143)"/></svg>