<svg width="24" height="24" viewBox="0 0 24 24" fill="none" xmlns="http://www.w3.org/2000/svg">
<path d="M14.6974 16.4096C11.2044 15.0598 9.43034 11.7601 8.62181 9.23325L10.1729 7.83469C11.2602 6.8804 10.6911 5.89429 10.2925 5.38345L7.94652 2.81196C7.19577 1.98906 6.38052 2.00069 5.48094 2.69165L3.92988 4.09021C2.11083 5.66067 2.94056 7.48184 3.22146 8.47837C5.17814 15.4201 12.5096 20.7256 15.4205 21.8505C17.7491 22.7504 18.5798 22.7397 19.3654 22.043L21.4335 20.1782C22.2799 19.0401 21.8659 18.0699 21.5531 17.727L19.2072 15.1554C18.4565 14.3325 17.2507 14.7323 16.7416 15.0351L14.6974 16.4096Z" stroke="#828282" stroke-width="1.5"/>
</svg>
