<svg xmlns="http://www.w3.org/2000/svg" viewBox="0 0 159 159"><defs><style>.a{fill:none;stroke:#fff;stroke-miterlimit:10;stroke-width:9px;}.b{fill:#fff;}</style></defs><title>inst</title><rect class="a" x="4.5" y="4.5" width="150" height="150"/><path class="b" d="M386.22,72.27H318.78a10.51,10.51,0,0,0-10.51,10.49v67.48a10.51,10.51,0,0,0,10.51,10.49h67.44a10.51,10.51,0,0,0,10.51-10.49V82.76A10.51,10.51,0,0,0,386.22,72.27ZM371.85,86.09a2.76,2.76,0,0,1,2.77-2.76h8.29a2.75,2.75,0,0,1,2.76,2.76v8.29a2.76,2.76,0,0,1-2.76,2.77h-8.29a2.77,2.77,0,0,1-2.77-2.77ZM352.6,99.63a17,17,0,1,1-17,17A17,17,0,0,1,352.6,99.63Zm35.84,50a2.77,2.77,0,0,1-2.77,2.77H319.33a2.77,2.77,0,0,1-2.77-2.77V108.21h11.06c-1.44,2.07-1.93,5.94-1.93,8.39a26.91,26.91,0,0,0,53.82,0c0-2.45-.34-6.26-2.13-8.39h11.06Z" transform="translate(-273 -37)"/></svg>