<svg xmlns="http://www.w3.org/2000/svg" viewBox="0 0 159 159"><defs><style>.a{fill:none;stroke:#fff;stroke-miterlimit:10;stroke-width:9px;}.b{fill:#fff;}</style></defs><title>ok</title><rect class="a" x="4.5" y="4.5" width="150" height="150"/><path class="b" d="M352.5,344.55a31.12,31.12,0,1,0-31.12-31.12A31.15,31.15,0,0,0,352.5,344.55Zm0-44.24a13.12,13.12,0,1,1-13.12,13.12A13.13,13.13,0,0,1,352.5,300.31Zm32.77,44.23a9,9,0,0,0-12.67-1.24c-11.27,9.26-28.93,9.26-40.2,0A9,9,0,1,0,321,357.21a48.61,48.61,0,0,0,18.26,9.32l-15,15.1A9,9,0,0,0,337,394.32l15.09-15.18,15.79,16.73A9,9,0,1,0,381,383.51l-15.86-16.79A48.82,48.82,0,0,0,384,357.21,9,9,0,0,0,385.27,344.54Z" transform="translate(-273 -261)"/></svg>