<svg xmlns="http://www.w3.org/2000/svg" viewBox="0 0 159 159"><defs><style>.a{fill:none;stroke:#fff;stroke-miterlimit:10;stroke-width:9px;}.b{fill:#fff;}</style></defs><title>vk</title><rect class="a" x="4.5" y="4.5" width="150" height="150"/><path class="b" d="M88.26,381.79h43a106.83,106.83,0,0,0,11.15-1.1q6.33-.82,9.46-2.64a21.38,21.38,0,0,0,8-7.91,22,22,0,0,0,2.91-11.27,19.72,19.72,0,0,0-4.09-12.78q-4.1-5.08-12.78-7.17a19.85,19.85,0,0,0,8.68-5.39A18,18,0,0,0,159,321.27,18.67,18.67,0,0,0,152.77,307q-6.24-5.78-17.9-5.77H88.26v80.58Zm25.12-64.26h11q5.66,0,7.94,2a6.89,6.89,0,0,1,2.28,5.5,7.32,7.32,0,0,1-2.28,5.8c-1.52,1.33-4.23,2-8.11,2H113.38V317.53Zm0,30.62H126c4.36,0,7.42.73,9.16,2.17a7.11,7.11,0,0,1,2.61,5.75,7.7,7.7,0,0,1-2.64,6.13c-1.76,1.52-4.79,2.28-9.07,2.28h-12.7V348.15Z" transform="translate(-46 -262)"/></svg>