<svg xmlns="http://www.w3.org/2000/svg" viewBox="0 0 159 159"><defs><style>.a{fill:none;stroke:#fff;stroke-miterlimit:10;stroke-width:9px;}.b{fill:#fff;}</style></defs><title>youtube</title><rect class="a" x="4.5" y="4.5" width="150" height="150"/><path class="b" d="M-205.83,438.87c-11,0-22-.13-33,0-11.4.18-20.66-8.75-20.28-20.22.15-4.62,0-9.26,0-13.89a19.41,19.41,0,0,1,19.57-19.52h67.42a19.42,19.42,0,0,1,19.6,19.51c0,4.81,0,9.63,0,14.44a19.38,19.38,0,0,1-19.72,19.64C-183.4,438.89-194.61,438.87-205.83,438.87Zm7.74-13c.47.37.81.65,1.16.91a6,6,0,0,0,6,.86c2-.8,2.62-2.61,2.63-4.55,0-5.67,0-11.33-.11-17a4.49,4.49,0,0,0-2.76-4.35,5.43,5.43,0,0,0-5.64.81l-1.43,1.14V392.27h-5.15v35.39h5.08Zm28.67-10.68c-.15-3.16-.17-6.14-.46-9.1a5.11,5.11,0,0,0-2.64-3.95,8.8,8.8,0,0,0-8.73-.21c-2.75,1.36-3.91,3.8-3.92,6.8,0,3.86,0,7.72,0,11.58,0,5.57,3.17,8.43,8.73,8.06,4.91-.32,7.77-4.2,6.69-9.13h-5c-.06,1-.06,1.86-.17,2.75a2,2,0,0,1-2.23,2.06c-1.51,0-2.3-.44-2.46-1.92-.19-1.84-.11-3.71-.22-5.57-.07-1.05.27-1.48,1.37-1.39s2.27,0,3.4,0Zm-53.37-13.57c0,.42-.07.64-.07.86,0,7,0,14.08,0,21.12a8.11,8.11,0,0,0,.26,1.88,3.09,3.09,0,0,0,3.31,2.62,8,8,0,0,0,5.15-2.2l1.23-1,.17,2.8h4.92v-26h-5v1.71c0,5.49-.07,11,0,16.48a2.9,2.9,0,0,1-1.76,3,3.38,3.38,0,0,1-2.38.35c-.49-.23-.65-1.35-.79-2.11a12.08,12.08,0,0,1,0-2.17V402.93c0-.6.19-1.34-.85-1.33C-219.94,401.62-221.3,401.61-222.79,401.61Zm-8.89,26.07V426c0-9.11,0-18.23,0-27.35,0-1.12.29-1.53,1.44-1.46,1.57.09,3.15,0,4.74,0v-4.94h-18.2v4.94c1.61,0,3.15.07,4.67,0,1.18-.08,1.55.28,1.54,1.5,0,9.12,0,18.24,0,27.36v1.62Z" transform="translate(284 -308)"/><path class="b" d="M-197.73,361.64c0,2.4,0,4.8,0,7.21-.07,4.77-2.5,7.49-7.23,8.12-3.09.41-6,0-8.34-2.28a7.62,7.62,0,0,1-2.25-5.79c0-4.85,0-9.7,0-14.56,0-4.06,1.89-6.59,5.85-7.56,3.6-.89,7-.65,9.9,2.09a6.21,6.21,0,0,1,2,4.47c0,2.76,0,5.53,0,8.3Zm-6.42,0c0-2.54,0-5.07,0-7.61a2.18,2.18,0,0,0-2.44-2.42,2.14,2.14,0,0,0-2.46,2.38c0,5.08,0,10.15,0,15.22,0,1.76.87,2.65,2.4,2.63s2.49-1,2.5-2.73C-204.14,366.64-204.15,364.15-204.15,361.66Z" transform="translate(284 -308)"/><path class="b" d="M-238.83,336.75c2.24,0,4.28-.05,6.31.05.34,0,.83.6,1,1,1.29,4.39,2.51,8.8,3.76,13.21a2.71,2.71,0,0,0,.69,1.25q1-3.63,2-7.26c.63-2.32,1.31-4.63,1.84-7a1.44,1.44,0,0,1,1.77-1.31c1.85.08,3.71,0,5.77,0-1,2.92-1.92,5.66-2.86,8.39-1.58,4.59-3.18,9.16-4.73,13.76a6.92,6.92,0,0,0-.34,2.12c0,4.5,0,9,0,13.49,0,1.86,0,1.86-1.81,1.87h-3.4c-1.88,0-1.88,0-1.88-1.82,0-2.63-.16-5.28,0-7.9a28.89,28.89,0,0,0-2.16-12.32c-2-5.44-3.78-11-5.65-16.46C-238.66,337.59-238.71,337.28-238.83,336.75Z" transform="translate(284 -308)"/><path class="b" d="M-181.8,376.38v-3c-.57.47-.94.78-1.31,1.07a8.71,8.71,0,0,1-5.69,2.28,3.72,3.72,0,0,1-4-3.15,6.94,6.94,0,0,1-.22-1.75c0-7.85,0-15.71,0-23.56,0-1,.32-1.28,1.26-1.23a30,30,0,0,0,3.67,0c1.12-.09,1.39.37,1.38,1.4,0,6.49,0,13,0,19.48,0,.59,0,1.18,0,1.77.12,1.37.84,1.84,2.13,1.41a3.41,3.41,0,0,0,2.76-3.74c0-6.32,0-12.63,0-18.94,0-1.07.3-1.46,1.38-1.38a30.12,30.12,0,0,0,3.68,0c1-.05,1.28.3,1.26,1.25-.05,2.08,0,4.17,0,6.26,0,6.72,0,13.44,0,20.16,0,1.34-.4,1.74-1.69,1.65C-178.7,376.3-180.19,376.38-181.8,376.38Z" transform="translate(284 -308)"/><path class="b" d="M-198.19,414.59c0-2.4.06-4.8,0-7.2-.06-1.47.83-1.91,2-2.11a2,2,0,0,1,2.5,1.36,4.24,4.24,0,0,1,.26,1.46c0,4.48.06,9,0,13.45,0,.81-.45,2.08-1,2.28a4.63,4.63,0,0,1-2.89-.36c-.39-.14-.71-1-.73-1.54C-198.24,419.49-198.19,417-198.19,414.59Z" transform="translate(284 -308)"/><path class="b" d="M-177.37,411.29c-2.69,0-3-.47-2.42-3.77a2.26,2.26,0,0,1,2.72-2.17,1.94,1.94,0,0,1,2,1.67,21.27,21.27,0,0,1,.13,3.66c0,.21-.42.54-.69.58A11.45,11.45,0,0,1-177.37,411.29Z" transform="translate(284 -308)"/></svg>