<svg xmlns="http://www.w3.org/2000/svg" viewBox="0 0 159 159"><defs><style>.a{fill:none;stroke:#fff;stroke-miterlimit:10;stroke-width:9px;}.b{fill:#fff;}</style></defs><title>inst</title><rect class="a" x="4.5" y="4.5" width="150" height="150" rx="25"/><path class="b" d="M386.12,84.52H318.69A10.51,10.51,0,0,0,308.18,95v67.48A10.51,10.51,0,0,0,318.69,173h67.43a10.51,10.51,0,0,0,10.52-10.49V95A10.51,10.51,0,0,0,386.12,84.52ZM371.76,98.34a2.76,2.76,0,0,1,2.76-2.76h8.3a2.76,2.76,0,0,1,2.76,2.76v8.29a2.77,2.77,0,0,1-2.76,2.77h-8.3a2.77,2.77,0,0,1-2.76-2.77Zm-19.25,13.54a17,17,0,1,1-17,17A17,17,0,0,1,352.51,111.88Zm35.84,50a2.77,2.77,0,0,1-2.77,2.77H319.24a2.77,2.77,0,0,1-2.77-2.77V120.46h11.06c-1.44,2.07-1.93,5.94-1.93,8.39a26.91,26.91,0,0,0,53.82,0c0-2.45-.34-6.26-2.13-8.39h11.06Z" transform="translate(-272.91 -49.25)"/></svg>