<svg xmlns="http://www.w3.org/2000/svg" viewBox="0 0 159 159"><defs><style>.a{fill:none;stroke:#fff;stroke-miterlimit:10;stroke-width:9px;}.b{fill:#fff;}</style></defs><title>ok</title><rect class="a" x="4.5" y="4.5" width="150" height="150" rx="25"/><path class="b" d="M352,344.05a31.12,31.12,0,1,0-31.12-31.12A31.15,31.15,0,0,0,352,344.05Zm0-44.24a13.12,13.12,0,1,1-13.12,13.12A13.13,13.13,0,0,1,352,299.81ZM384.77,344a9,9,0,0,0-12.67-1.24c-11.27,9.26-28.93,9.26-40.2,0a9,9,0,1,0-11.43,13.91A48.61,48.61,0,0,0,338.73,366l-15,15.1a9,9,0,0,0,12.77,12.69l15.09-15.18,15.79,16.73A9,9,0,1,0,380.45,383l-15.86-16.79a48.82,48.82,0,0,0,18.94-9.51A9,9,0,0,0,384.77,344Z" transform="translate(-272.5 -260.5)"/></svg>