<svg xmlns="http://www.w3.org/2000/svg" viewBox="0 0 159 159"><defs><style>.a{fill:none;stroke:#fff;stroke-miterlimit:10;stroke-width:9px;}.b{fill:#fff;}</style></defs><title>vk</title><rect class="a" x="4.5" y="4.5" width="150" height="150" rx="25"/><path class="b" d="M93.33,380.32h43a107.7,107.7,0,0,0,11.16-1.11q6.33-.81,9.46-2.63a21.48,21.48,0,0,0,8-7.92,22,22,0,0,0,2.91-11.27,19.72,19.72,0,0,0-4.09-12.78q-4.11-5.08-12.78-7.17a19.85,19.85,0,0,0,8.68-5.39,18,18,0,0,0,4.45-12.26,18.68,18.68,0,0,0-6.23-14.29q-6.26-5.78-17.9-5.77H93.33v80.59Zm25.12-64.26h11c3.78,0,6.43.65,7.95,2a6.93,6.93,0,0,1,2.28,5.5,7.35,7.35,0,0,1-2.28,5.8c-1.52,1.34-4.23,2-8.11,2H118.45V316.06Zm0,30.61h12.64q6.54,0,9.16,2.18a7.11,7.11,0,0,1,2.6,5.74,7.68,7.68,0,0,1-2.63,6.13q-2.64,2.28-9.08,2.28H118.45V346.67Z" transform="translate(-51.07 -260.52)"/></svg>