<svg width="25" height="22" viewBox="0 0 25 22" fill="none" xmlns="http://www.w3.org/2000/svg">
<g clip-path="url(#clip0)">
<path d="M22.4145 14.5139L22.0451 15.9844H4.39347C3.98523 11.1528 3.57698 6.32118 3.16874 1.45139H0V0H4.58787C4.99611 4.8125 5.40435 9.6441 5.8126 14.5139H22.4145Z" fill="#e20074"/>
<path d="M17.9816 8.5555H12.3828V5.17529H17.9816V8.5555Z" fill="#e20074"/>
<path d="M19.7703 17.4358C21.0534 17.4358 22.1031 18.4479 22.1226 19.7084C22.1031 20.9688 21.0728 21.9809 19.7898 22C18.5067 22 17.4569 20.9879 17.4375 19.7275C17.4375 18.467 18.4873 17.4358 19.7703 17.4358Z" fill="#e20074"/>
<path d="M9.68163 19.7084C9.68163 20.9688 8.67074 21.981 7.38769 22.0001C7.38769 22.0001 7.38769 22.0001 7.36825 22.0001C6.10464 22.0192 5.05488 21.007 5.03544 19.7657C5.03544 19.7466 5.03544 19.7466 5.03544 19.7275C5.016 18.4862 6.00744 17.4549 7.27105 17.4358C7.29049 17.4358 7.30993 17.4358 7.32937 17.4358C8.59298 17.4167 9.64275 18.3907 9.66219 19.6511C9.68163 19.6702 9.68163 19.6893 9.68163 19.7084Z" fill="#e20074"/>
<path d="M17.9815 3.60939H12.3633V0.725708H17.962L17.9815 3.60939Z" fill="#e20074"/>
<path d="M18.001 10.1216V12.9862H12.3828V10.1216H18.001Z" fill="#e20074"/>
<path d="M19.5176 3.62849V0.725708H24.9997C24.8053 1.69967 24.6109 2.65453 24.4165 3.60939H19.5176V3.62849Z" fill="#e20074"/>
<path d="M6.2207 5.17529H10.7891V8.5746H6.57063C6.45398 7.42877 6.33734 6.32113 6.2207 5.17529Z" fill="#e20074"/>
<path d="M24.125 5.17529H19.5371V8.59369H23.2502C23.4251 8.5555 23.5807 8.40272 23.6001 8.23085C23.6779 7.8871 24.125 5.17529 24.125 5.17529Z" fill="#e20074"/>
<path d="M6.08457 3.60939C5.98737 2.63543 5.89017 1.69967 5.79297 0.725708H10.8085V3.60939H6.08457Z" fill="#e20074"/>
<path d="M7.01816 12.9862C6.92096 12.0313 6.82376 11.0955 6.72656 10.1216H10.809V12.9862H7.01816Z" fill="#e20074"/>
<path d="M23.1334 10.1216H19.5176V13.0435H22.4336C22.5891 13.0053 22.7058 12.8716 22.7058 12.7379C22.7835 12.4514 23.1334 10.1216 23.1334 10.1216Z" fill="#e20074"/>
</g>
<defs>
<clipPath id="clip0">
<rect width="25" height="22" fill="#e20074"/>
</clipPath>
</defs>
</svg>
