<svg width="41" height="36" viewBox="0 0 41 36" fill="none" xmlns="http://www.w3.org/2000/svg">
<g clip-path="url(#clip0_629_344)">
<path d="M41.0036 11.8285C40.9435 12.2144 40.8963 12.6087 40.832 12.9947C40.6044 14.2251 40.2062 15.4201 39.6481 16.5474C38.2305 19.3904 36.3972 22.021 34.2046 24.3583C32.5347 26.1882 30.7513 27.9179 28.864 29.5379C26.8736 31.2686 24.8146 32.9205 22.6741 34.4727C22.0007 34.9624 21.3358 35.4522 20.6366 35.9377C20.6174 35.9563 20.5947 35.9711 20.5697 35.9811C20.5446 35.9912 20.5178 35.9963 20.4907 35.9963C20.4636 35.9963 20.4368 35.9912 20.4118 35.9811C20.3867 35.9711 20.364 35.9563 20.3449 35.9377C17.4847 33.9486 14.7382 31.8108 12.1174 29.5338C10.0428 27.7541 8.09644 25.8391 6.29214 23.8022C4.54279 21.8612 3.03005 19.7319 1.78377 17.4563C0.940639 15.9765 0.371555 14.3654 0.102242 12.6959C0.0052197 11.8693 -0.0234687 11.0366 0.0164501 10.2057C0.0709283 8.84622 0.410998 7.51174 1.01593 6.28361C1.60375 5.05536 2.42437 3.94464 3.43526 3.00899C4.38987 2.11882 5.50308 1.40312 6.7211 0.896472C7.71934 0.47022 8.78017 0.197169 9.86537 0.087157L10.6118 0H11.7271L11.9458 0.0373531C12.9835 0.0965985 14.0066 0.302133 14.9829 0.647452C16.5563 1.20393 17.9799 2.09621 19.1481 3.25801C19.577 3.69795 20.0703 4.11298 20.5336 4.54047L21.0527 4.04243C21.7301 3.31775 22.4738 2.65376 23.2747 2.05857C24.6548 1.08001 26.2562 0.434049 27.946 0.174314C28.375 0.107909 28.804 0.062255 29.2672 0.00830066H30.3825C30.4604 0.0247844 30.5392 0.037253 30.6185 0.0456537C31.5073 0.0916854 32.3858 0.252196 33.2308 0.522942C35.4832 1.21348 37.4469 2.58538 38.833 4.43671C39.8716 5.77899 40.5563 7.34603 40.8277 9.00208C40.9006 9.41711 40.9435 9.88195 41.0036 10.3219V11.8285ZM20.4778 7.17593C19.6199 6.32511 18.762 5.49504 17.9427 4.65252C16.3378 2.98977 14.1379 1.98191 11.7914 1.83445C10.2447 1.72133 8.69418 1.99877 7.29161 2.63961C5.12852 3.58166 3.42555 5.29626 2.53874 7.42495C2.17359 8.24277 1.96153 9.11686 1.91245 10.0065C1.8623 10.7877 1.87234 11.5716 1.94248 12.3514C2.08646 13.4522 2.40627 14.5247 2.89048 15.5306C3.79275 17.4511 4.92588 19.2621 6.2664 20.926C8.11771 23.2576 10.19 25.4168 12.4563 27.3756C14.1121 28.8116 15.815 30.2103 17.5223 31.5923C18.4789 32.3643 19.4912 33.074 20.4821 33.8169L20.6752 33.6841C22.2452 32.4847 23.828 31.306 25.3937 30.0816C27.1869 28.6703 28.8941 27.1598 30.5069 25.5578C31.5836 24.4787 32.6517 23.3705 33.634 22.2375C35.4645 20.1993 36.9749 17.9114 38.1167 15.4475C38.7031 14.2222 39.0493 12.9022 39.1376 11.5545C39.2308 10.0351 38.95 8.51598 38.3183 7.12197C37.5166 5.39586 36.1736 3.95777 34.4797 3.01167C32.7858 2.06558 30.827 1.6595 28.8812 1.85105C27.914 1.94207 26.9674 2.17873 26.0758 2.55246C24.7955 3.1187 23.6504 3.9355 22.7127 4.95135C22.0049 5.70256 21.2543 6.42472 20.4778 7.17593Z" fill="#303030"/>
</g>
<defs>
<clipPath id="clip0_629_344">
<rect width="41" height="36" fill="white"/>
</clipPath>
</defs>
</svg>
