<svg width="18" height="18" viewBox="0 0 18 18" fill="none" xmlns="http://www.w3.org/2000/svg">
<path d="M7.70413 14.8715V14.6339C7.70413 12.9844 7.70413 11.3345 7.71169 9.68502C7.7162 9.55694 7.69277 9.42942 7.64303 9.3113C7.5933 9.19318 7.51846 9.08731 7.42369 9.00102C5.47969 7.1103 3.53941 5.21646 1.60285 3.3195C1.55137 3.2691 1.49953 3.21978 1.42285 3.14526H16.5472C16.5076 3.19278 16.4813 3.2295 16.45 3.26118C14.6097 5.12694 12.7687 6.99186 10.9272 8.85594C10.6662 9.11982 10.5247 9.41034 10.5312 9.79842C10.5514 10.7704 10.5352 11.7424 10.5402 12.7144C10.5402 12.9257 10.474 13.0712 10.2882 13.19C9.48145 13.7087 8.68261 14.2401 7.88089 14.7664C7.83445 14.7985 7.78333 14.8251 7.70413 14.8715Z" fill="white"/>
</svg>
