<svg id="Слой_1" data-name="Слой 1" xmlns="http://www.w3.org/2000/svg" viewBox="0 0 422.33 420.38">
  <title>Карандаш</title>
  <path d="M422.33,75c-2.3,9.5-8.5,16.3-15.3,22.9-11.1,10.7-21.8,21.7-32.7,32.6a16.87,16.87,0,0,0-2.4,3.5c-29.2-29.3-57.7-57.7-86.3-86.3-.1.2-.1-.1.1-.3,12.5-12.5,24.4-25.4,37.5-37.1,16.2-14.4,37.1-13.5,52.7,1.6,12.6,12.2,24.9,24.9,37.4,37.3,4.7,4.7,7.2,10.6,9,16.8Z" style="fill: #303030"/>
  <path d="M130.83,372.68c-28.2-28.1-56.6-56.5-84.6-84.5q108.3-108.45,216.6-216.6l84.5,84.5Q239.33,263.93,130.83,372.68Z" style="fill: #303030"/>
  <path d="M21.73,312c28.5,28.4,56.7,56.6,85.2,85.1-9.3,2.3-18.7,4.6-28.1,6.9-21.3,5.2-42.7,10.3-64,15.5a28.17,28.17,0,0,1-5.7.9,9.53,9.53,0,0,1-8.9-11.5C7.33,376.48,14.63,344.28,21.73,312Z" style="fill: #303030"/>
</svg>
