<svg width="20" height="20" viewBox="0 0 20 20" fill="none" xmlns="http://www.w3.org/2000/svg">
<path fill-rule="evenodd" clip-rule="evenodd" d="M12.0602 1.42857C11.8427 1.42857 11.6415 1.54428 11.5324 1.73213L11.5274 1.73998L7.13244 8.87573V18.5714H15.5351C15.8218 18.5714 16.07 18.3721 16.1321 18.0921L16.1342 18.0807L18.5599 8.59358C18.6384 8.21429 18.3495 7.85714 17.9615 7.85714H14.2648C13.6964 7.85714 13.1329 7.66642 12.7285 7.27142C12.307 6.85928 12.1094 6.27 12.2364 5.625L12.9204 2.15929C12.9952 1.78072 12.7057 1.42857 12.3205 1.42857H12.0602ZM5.70596 18.5714V9.38786H2.0984C1.76246 9.38786 1.49001 9.6593 1.48715 9.99573L1.42654 17.9543C1.42368 18.2943 1.69828 18.5714 2.03778 18.5714H5.70596ZM6.02123 7.95929L10.3049 1.00429C10.6715 0.382147 11.3384 0 12.0602 0H12.3205C13.6044 0 14.5687 1.17501 14.3198 2.43644L13.6365 5.90145C13.6015 6.07645 13.6507 6.17716 13.7249 6.2493C13.8169 6.3393 13.9988 6.42857 14.2648 6.42857H17.9615C19.2653 6.42857 20.2332 7.63785 19.9507 8.91214L19.9479 8.92356L17.5214 18.4143C17.3096 19.3414 16.4858 20 15.5351 20H2.03778C0.906581 20 -0.0084993 19.0771 5.95532e-05 17.9436L0.0606787 9.98431C0.0692375 8.86359 0.979325 7.95929 2.0984 7.95929H6.02123Z" fill="#A6A6A6"/>
</svg>
