<svg width="17" height="17" viewBox="0 0 17 17" fill="none" xmlns="http://www.w3.org/2000/svg">
<path d="M8.11114 9.57459C7.97271 9.45923 7.89258 9.28922 7.89258 9.10707V3.64279C7.89258 3.30886 8.16458 3.03564 8.49972 3.03564C8.83486 3.03564 9.10686 3.30886 9.10686 3.64279V8.82173L12.5312 11.6753C12.7886 11.8938 12.8238 12.2764 12.6089 12.5314C12.3945 12.7864 12.0114 12.8228 11.754 12.6103L8.11114 9.57459Z" fill="#A6A6A6"/>
<path fill-rule="evenodd" clip-rule="evenodd" d="M8.5 0C3.80557 0 0 3.80679 0 8.5C0 13.1932 3.80557 17 8.5 17C13.1944 17 17 13.1932 17 8.5C17 3.80679 13.1944 0 8.5 0ZM1.21429 8.5C1.21429 4.47464 4.47646 1.21429 8.5 1.21429C12.5235 1.21429 15.7857 4.47464 15.7857 8.5C15.7857 12.5254 12.5235 15.7857 8.5 15.7857C4.47646 15.7857 1.21429 12.5254 1.21429 8.5Z" fill="#A6A6A6"/>
</svg>
