<svg width="40" height="40" viewBox="0 0 40 40" fill="none" xmlns="http://www.w3.org/2000/svg">
<rect x="0.5" y="0.5" width="39" height="39" fill="white" stroke="#E1E1E1"/>
<path fill-rule="evenodd" clip-rule="evenodd" d="M11.4286 8C9.53429 8 8 9.53514 8 11.4286V20.8571C8 22.7506 9.53429 24.2857 11.4286 24.2857H15.7143V28.5714C15.7143 30.4649 17.2486 32 19.1429 32H28.5714C30.4657 32 32 30.4649 32 28.5714V19.1429C32 17.2494 30.4657 15.7143 28.5714 15.7143H24.2857V11.4286C24.2857 9.53514 22.7514 8 20.8571 8H11.4286ZM24.2857 17.4286V20.8571C24.2857 22.7506 22.7514 24.2857 20.8571 24.2857H17.4286V28.5714C17.4286 29.5186 18.2 30.2857 19.1429 30.2857H28.5714C29.5143 30.2857 30.2857 29.5186 30.2857 28.5714V19.1429C30.2857 18.1957 29.5143 17.4286 28.5714 17.4286H24.2857ZM9.71429 11.4286C9.71429 10.4814 10.4857 9.71429 11.4286 9.71429H20.8571C21.8 9.71429 22.5714 10.4814 22.5714 11.4286V20.8571C22.5714 21.8043 21.8 22.5714 20.8571 22.5714H11.4286C10.4857 22.5714 9.71429 21.8043 9.71429 20.8571V11.4286Z" fill="#5F5F5F"/>
</svg>
