<svg width="20" height="15" viewBox="0 0 20 15" fill="none" xmlns="http://www.w3.org/2000/svg">
<path fill-rule="evenodd" clip-rule="evenodd" d="M10 10.6C11.9882 10.6 13.6 8.98822 13.6 7C13.6 5.01177 11.9882 3.4 10 3.4C8.01177 3.4 6.4 5.01177 6.4 7C6.4 8.98822 8.01177 10.6 10 10.6ZM10 12C12.7614 12 15 9.76142 15 7C15 4.23858 12.7614 2 10 2C7.23858 2 5 4.23858 5 7C5 9.76142 7.23858 12 10 12Z" fill="#A6A6A6"/>
<path fill-rule="evenodd" clip-rule="evenodd" d="M2.97779 2.84446C4.72594 1.36595 7.20741 0 10 0C12.7926 0 15.2741 1.36595 17.0222 2.84446C17.9037 3.58817 18.6297 4.37928 19.1334 5.08224C19.3852 5.43261 19.5925 5.77185 19.7407 6.08222C19.8814 6.37185 20 6.71111 20 7.03704C20 7.36296 19.8814 7.70369 19.7407 7.99258C19.5925 8.30369 19.3852 8.64446 19.1334 8.9926C18.6297 9.69631 17.9037 10.4889 17.0222 11.2296C15.2741 12.7111 12.7926 14.0741 10 14.0741C7.20741 14.0741 4.72594 12.7111 2.97779 11.2296C2.09631 10.4889 1.37031 9.69631 0.866609 8.9926C0.614757 8.64446 0.40748 8.30369 0.259332 7.99258C0.118591 7.70369 0 7.36296 0 7.03704C0 6.71111 0.118591 6.37185 0.259332 6.08222C0.40748 5.77185 0.614757 5.43261 0.866609 5.08224C1.37031 4.37928 2.09631 3.58817 2.97779 2.84446ZM1.48148 7.03704C1.48148 7.05185 1.50364 7.15555 1.59993 7.35555C1.69623 7.56296 1.85188 7.82961 2.0667 8.1259C2.50373 8.7259 3.13338 9.42963 3.93338 10.0963C5.53338 11.4519 7.68148 12.5926 10 12.5926C12.3185 12.5926 14.4666 11.4519 16.0666 10.0963C16.8666 9.42963 17.4963 8.7259 17.9333 8.1259C18.1481 7.82961 18.3038 7.56296 18.4001 7.35555C18.4964 7.15555 18.5185 7.05185 18.5185 7.03704C18.5185 7.02222 18.4964 6.91852 18.4001 6.71852C18.3038 6.50963 18.1481 6.24743 17.9333 5.94817C17.4963 5.35039 16.8666 4.64739 16.0666 3.97628C15.5481 3.53925 14.9777 3.12445 14.3555 2.76222C14.3555 2.76222 12.6593 1.5 10 1.5C7.34074 1.5 5.64453 2.76222 5.64453 2.76222C5.02231 3.12445 4.4519 3.53925 3.93338 3.97628C3.13338 4.64739 2.50373 5.35039 2.0667 5.94817C1.85188 6.24743 1.69623 6.50963 1.59993 6.71852C1.50364 6.91852 1.48148 7.02222 1.48148 7.03704Z" fill="#A6A6A6"/>
</svg>
