<svg width="23" height="11" viewBox="0 0 23 11" fill="none" xmlns="http://www.w3.org/2000/svg">
<g clip-path="url(#clip0_37_222)">
<path d="M9.84827 0.0811901C11.06 0.0695868 12.2606 0.0579834 13.4723 0.0579834C14.0892 0.0579834 14.706 0.0579834 15.3229 0.0579834C16.0169 0.0579834 16.7769 0.208827 17.2506 0.812203C18.0216 1.81009 18.7266 2.866 19.4647 3.8871C19.5858 4.03794 19.729 4.15397 19.9053 4.2352C20.6102 4.56009 21.3262 4.83857 22.0202 5.16347C22.571 5.41874 22.9125 5.85967 22.9235 6.53267C22.9235 7.3449 22.9565 8.16874 22.9345 8.98098C22.9014 9.92085 22.4498 10.2457 21.5686 10.0369C21.6677 8.28478 20.8966 7.14765 19.5307 7.05482C18.98 7.0084 18.4292 7.19406 17.9996 7.57697C17.2616 8.21516 17.0523 9.0622 17.2175 10.0253H9.71609C9.76015 8.15714 8.88994 7.00841 7.47998 7.04322C6.86312 7.05482 6.26829 7.3449 5.87174 7.84385C5.33199 8.43562 5.14473 9.29427 5.38707 10.0717C5.10067 10.0717 4.84732 10.0717 4.59396 10.0717C3.96609 10.0833 3.69071 9.7352 3.82289 9.039C3.92203 9.02739 4.02117 9.00419 4.12031 8.98098C4.5499 8.83014 4.85833 8.41241 4.88036 7.93668C4.84732 7.46094 4.53889 7.04322 4.10929 6.89237C3.62462 6.75313 3.60259 6.70672 3.7568 6.11494C3.91101 6.11494 4.07624 6.11494 4.24147 6.11494C4.4067 6.11494 4.57193 6.10334 4.73716 6.08013C5.21082 6.01051 5.57433 5.6044 5.60737 5.10545C5.65144 4.5833 5.32098 4.11916 4.84732 4.00313C4.50584 3.92191 4.14234 3.93351 3.80086 3.8987C3.76782 3.2141 3.76782 3.2141 4.35163 3.2141C4.80326 3.2141 5.24387 3.2257 5.68448 3.2025C6.24626 3.16769 6.62078 2.79638 6.68688 2.23942C6.75297 1.74047 6.46657 1.26473 6.00393 1.11389C5.79464 1.05587 5.58534 1.03267 5.36504 1.04427C4.93544 1.03267 4.51686 1.04427 4.07624 1.04427C4.19741 0.382878 4.4728 0.15081 5.08965 0.139207C6.66485 0.116 8.26207 0.104397 9.84827 0.0811901ZM18.6605 4.07275C18.1098 3.12127 17.548 2.27423 16.821 1.57803C16.6117 1.38077 16.3583 1.25313 16.0829 1.21832C15.4991 1.17191 14.9153 1.21832 14.3315 1.19511C14.0451 1.18351 13.946 1.31115 13.957 1.60123C13.968 2.28583 13.979 2.97043 13.957 3.65503C13.946 4.00313 14.0561 4.11916 14.3976 4.11916C15.6974 4.10756 16.9972 4.10756 18.297 4.10756C18.4182 4.10756 18.5504 4.09596 18.6605 4.07275Z" fill="#E20074"/>
<path d="M20.9074 9.42198C20.8964 10.2806 20.2465 10.9768 19.4314 11C18.5391 11.0116 17.8672 10.327 17.8672 9.44519C17.8672 8.48211 18.4951 7.79751 19.3873 7.79751C20.2685 7.78591 20.9074 8.4705 20.9074 9.42198Z" fill="#E20074"/>
<path d="M5.98047 9.36396C6.01351 8.38928 6.67443 7.75109 7.63277 7.7859C8.4479 7.82071 9.07578 8.55172 9.05374 9.45679C9.00968 10.3386 8.29369 11.0232 7.45652 11C6.63037 10.9536 5.98047 10.2342 5.98047 9.36396Z" fill="#E20074"/>
<path d="M3.04023 2.56438C2.2251 2.56438 1.40996 2.56438 0.594828 2.56438C0.286399 2.56438 0 2.50636 0 2.11185C0 1.71733 0.264368 1.63611 0.583812 1.63611H5.58477C5.87117 1.63611 6.09148 1.75214 6.10249 2.08864C6.10249 2.45995 5.87117 2.55277 5.56274 2.55277L3.04023 2.56438Z" fill="#E20074"/>
<path d="M3.14995 5.47684H1.77303C1.47562 5.47684 1.27734 5.3492 1.27734 5.0011C1.27734 4.653 1.47562 4.57178 1.751 4.57178C2.65426 4.57178 3.55752 4.57178 4.46077 4.57178C4.78022 4.57178 4.97849 4.68781 4.96748 5.05912C4.95646 5.43043 4.72514 5.47684 4.43874 5.47684C4.00914 5.47684 3.57955 5.47684 3.14995 5.47684Z" fill="#E20074"/>
<path d="M3.27181 8.37759C3.07353 8.37759 2.86424 8.38919 2.65495 8.37759C2.4016 8.36599 2.21434 8.19194 2.2584 7.94827C2.29144 7.77421 2.48972 7.53054 2.64393 7.50734C3.0515 7.46092 3.44805 7.44932 3.85562 7.49573C4.06491 7.49573 4.24116 7.66978 4.25217 7.90185C4.25217 7.91345 4.25217 7.93666 4.25217 7.94827C4.24116 8.22675 4.08694 8.36599 3.84461 8.37759C3.64633 8.38919 3.45907 8.37759 3.27181 8.37759Z" fill="#E20074"/>
</g>
<defs>
<clipPath id="clip0_37_222">
<rect width="23" height="11" fill="white"/>
</clipPath>
</defs>
</svg>
