<svg xmlns="http://www.w3.org/2000/svg" width="33" height="26" viewBox="0 0 33 26">
  <defs>
    <linearGradient id="a" x1="-57.527%" x2="232.391%" y1="50.124%" y2="50.124%">
      <stop stop-color="#007940" offset="0%"/>
      <stop stop-color="#00873F" offset="22.85%"/>
      <stop stop-color="#40A737" offset="74.33%"/>
      <stop stop-color="#5CB531" offset="100%"/>
    </linearGradient>
    <linearGradient id="b" x1=".183%" x2="100.273%" y1="49.96%" y2="49.96%">
      <stop stop-color="#007940" offset="0%"/>
      <stop stop-color="#00873F" offset="22.85%"/>
      <stop stop-color="#40A737" offset="74.33%"/>
      <stop stop-color="#5CB531" offset="100%"/>
    </linearGradient>
    <linearGradient id="c" x1="-62.802%" x2="253.671%" y1="49.858%" y2="49.858%">
      <stop stop-color="#007940" offset="0%"/>
      <stop stop-color="#00873F" offset="22.85%"/>
      <stop stop-color="#40A737" offset="74.33%"/>
      <stop stop-color="#5CB531" offset="100%"/>
    </linearGradient>
    <linearGradient id="d" x1=".176%" x2="101.808%" y1="50.006%" y2="50.006%">
      <stop stop-color="#1F286F" offset="0%"/>
      <stop stop-color="#004E94" offset="47.51%"/>
      <stop stop-color="#0066B1" offset="82.61%"/>
      <stop stop-color="#006FBC" offset="100%"/>
    </linearGradient>
    <linearGradient id="e" x1="-.576%" x2="98.133%" y1="49.914%" y2="49.914%">
      <stop stop-color="#6C2C2F" offset="0%"/>
      <stop stop-color="#882730" offset="17.35%"/>
      <stop stop-color="#BE1833" offset="57.31%"/>
      <stop stop-color="#DC0436" offset="85.85%"/>
      <stop stop-color="#E60039" offset="100%"/>
    </linearGradient>
  </defs>
  <g fill="none" transform="translate(2 2)">
    <path fill="#FFFFFF" d="M28,17.5650794 C28,20.0095238 26.0488997,22 23.6528117,22 L-4.42952641e-09,22 L-4.42952641e-09,4.43492068 C-4.42952641e-09,1.99047623 1.95110025,4.02916886e-08 4.34718826,4.02916886e-08 L28,4.02916886e-08 L28,17.5650794 Z"/>
    <path fill="url(#a)" d="M20.2982886,12.7667858 L22.0953545,12.7667858 C22.1466993,12.7667858 22.2665038,12.749718 22.3178485,12.749718 C22.6601468,12.6814464 22.9511003,12.3742243 22.9511003,11.9475269 C22.9511003,11.5378974 22.6601468,11.2306753 22.3178485,11.1453358 C22.2665038,11.1282679 22.1638143,11.1282679 22.0953545,11.1282679 L20.2982886,11.1282679 L20.2982886,12.7667858 Z"/>
    <path fill="url(#b)" d="M21.8899756,1.45077116 C20.1784843,1.45077116 18.7750612,2.86140361 18.7750612,4.62034036 L18.7750612,7.91181608 L23.1735942,7.91181608 C23.2762837,7.91181608 23.3960882,7.91181608 23.4816628,7.92923127 C24.4743277,7.98147696 25.210269,8.50393342 25.210269,9.40952458 C25.210269,10.1235484 24.7139365,10.733081 23.7897311,10.8549875 L23.7897311,10.8898179 C24.7995111,10.9594788 25.5696823,11.5341808 25.5696823,12.4223568 C25.5696823,13.3801937 24.7139365,14.0071415 23.5843522,14.0071415 L18.7579463,14.0071415 L18.7579463,20.4507712 L23.3276284,20.4507712 C25.03912,20.4507712 26.4425429,19.0401387 26.4425429,17.281202 L26.4425429,1.45077116 L21.8899756,1.45077116 Z"/>
    <path fill="url(#c)" d="M22.7286065,9.45561417 C22.7286065,9.04598465 22.4376529,8.77289832 22.0953545,8.72169465 C22.0611249,8.72169465 21.9755502,8.70462673 21.9242055,8.70462673 L20.2982886,8.70462673 L20.2982886,10.2066016 L21.9242055,10.2066016 C21.9755502,10.2066016 22.0782398,10.2066016 22.0953545,10.1895336 C22.4376529,10.13833 22.7286065,9.86524364 22.7286065,9.45561417 Z"/>
    <path fill="url(#d)" d="M4.67237166,1.45077116 C2.9608802,1.45077116 1.55745721,2.86269776 1.55745721,4.62324821 L1.55745721,12.4498536 C2.43031785,12.8856335 3.33740832,13.1645325 4.24449879,13.1645325 C5.3227384,13.1645325 5.90464552,12.5021473 5.90464552,11.5957253 L5.90464552,7.90031242 L8.57457218,7.90031242 L8.57457218,11.578294 C8.57457218,13.0076518 7.7017115,14.1755418 4.74083131,14.1755418 C2.94376529,14.1755418 1.5403423,13.7746243 1.5403423,13.7746243 L1.5403423,20.4507712 L6.11002448,20.4507712 C7.8215159,20.4507712 9.2249389,19.0388445 9.2249389,17.2782941 L9.2249389,1.45077116 L4.67237166,1.45077116 Z"/>
    <path fill="url(#e)" d="M10.1662592,4.61743784 L10.1662592,8.75846347 C10.9535452,8.07989204 12.3227384,7.64491035 14.5305624,7.74930597 C15.7114915,7.80150376 16.9779951,8.13208982 16.9779951,8.13208982 L16.9779951,9.47183344 C16.3447434,9.14124737 15.5916871,8.84545979 14.6161369,8.77586276 C12.9388754,8.6540679 11.9290954,9.48923273 11.9290954,10.9507712 C11.9290954,12.4297088 12.9388754,13.2648737 14.6161369,13.1256796 C15.5916871,13.0560825 16.3447434,12.7428957 16.9779951,12.4297088 L16.9779951,13.7694524 C16.9779951,13.7694524 15.7286065,14.1000386 14.5305624,14.1522363 C12.3227384,14.2566319 10.9535452,13.8216503 10.1662592,13.1430788 L10.1662592,20.4507712 L14.7359414,20.4507712 C16.4474329,20.4507712 17.8508558,19.0414305 17.8508558,17.2841045 L17.8508558,1.45077116 L13.2811737,1.45077116 C11.5696821,1.45077116 10.1662592,2.86011182 10.1662592,4.61743784 Z"/>
  </g>
</svg>
