<svg width="35" height="28" fill="none" xmlns="http://www.w3.org/2000/svg"><path fill-rule="evenodd" clip-rule="evenodd" d="M11.375 23.625a9.625 9.625 0 1 0 0-19.25 9.625 9.625 0 0 0 0 19.25z" fill="#D2222B"/><path fill-rule="evenodd" clip-rule="evenodd" d="M23.625 23.625a9.625 9.625 0 1 0 0-19.25 9.625 9.625 0 0 0 0 19.25z" fill="#00A3D4"/><path fill-rule="evenodd" clip-rule="evenodd" d="M17.5 6.575A9.606 9.606 0 0 0 14 14a9.606 9.606 0 0 0 3.5 7.425A9.606 9.606 0 0 0 21 14a9.606 9.606 0 0 0-3.5-7.425z" fill="#6F6FA5"/></svg>
