<svg width="16" height="25" viewBox="0 0 16 25" fill="none" xmlns="http://www.w3.org/2000/svg">
<path d="M0.974121 7.94141C0.974121 7.02539 1.27148 6.28369 1.86621 5.71631C2.46094 5.14209 3.24023 4.85498 4.2041 4.85498C5.18164 4.85498 5.96777 5.13867 6.5625 5.70605C7.15723 6.2666 7.45459 7.02881 7.45459 7.99268V8.73096C7.45459 9.65381 7.15723 10.3955 6.5625 10.9561C5.96777 11.5166 5.18848 11.7969 4.22461 11.7969C3.25391 11.7969 2.46777 11.5166 1.86621 10.9561C1.27148 10.3887 0.974121 9.62646 0.974121 8.66943V7.94141ZM2.94287 8.73096C2.94287 9.14111 3.05908 9.47266 3.2915 9.72559C3.53076 9.97168 3.8418 10.0947 4.22461 10.0947C4.60742 10.0947 4.91162 9.96826 5.13721 9.71533C5.36279 9.4624 5.47559 9.12402 5.47559 8.7002V7.94141C5.47559 7.53125 5.36279 7.19971 5.13721 6.94678C4.91162 6.69385 4.60059 6.56738 4.2041 6.56738C3.82812 6.56738 3.52393 6.69385 3.2915 6.94678C3.05908 7.19287 2.94287 7.53809 2.94287 7.98242V8.73096ZM8.11084 16.3394C8.11084 15.4165 8.41162 14.6748 9.01318 14.1143C9.61475 13.5469 10.394 13.2632 11.3511 13.2632C12.3218 13.2632 13.1045 13.5435 13.6992 14.104C14.3008 14.6577 14.6016 15.4233 14.6016 16.4009V17.1392C14.6016 18.0552 14.3076 18.7969 13.7197 19.3643C13.1318 19.9248 12.3491 20.2051 11.3716 20.2051C10.3872 20.2051 9.59766 19.9214 9.00293 19.354C8.4082 18.7866 8.11084 18.0347 8.11084 17.0981V16.3394ZM10.0796 17.1392C10.0796 17.5151 10.2026 17.8364 10.4487 18.103C10.6948 18.3696 11.0024 18.5029 11.3716 18.5029C12.2056 18.5029 12.6226 18.0415 12.6226 17.1187V16.3394C12.6226 15.9292 12.5063 15.6011 12.2739 15.355C12.0415 15.1021 11.7339 14.9756 11.3511 14.9756C10.9683 14.9756 10.6606 15.1021 10.4282 15.355C10.1958 15.6011 10.0796 15.9395 10.0796 16.3701V17.1392ZM4.80908 18.8823L3.36328 18.103L10.6538 6.43408L12.0996 7.21338L4.80908 18.8823Z" fill="#E20074"/>
</svg>
