<?xml version="1.0" encoding="utf-8"?>
<!-- Generator: Adobe Illustrator 24.0.0, SVG Export Plug-In . SVG Version: 6.00 Build 0)  -->
<svg version="1.1" id="Слой_1" xmlns="http://www.w3.org/2000/svg" xmlns:xlink="http://www.w3.org/1999/xlink" x="0px" y="0px"
	 viewBox="0 0 128.6 115.2" style="enable-background:new 0 0 128.6 115.2;" xml:space="preserve">
<style type="text/css">
	.st0{fill:#FFFFFF;}
	.st1{fill:#E20074;}
</style>
<title>корзина темная</title>
<path class="st0" d="M115.3,76l-1.9,7.7H22.6c-2.1-25.3-4.2-50.6-6.3-76.1H0V0h23.6c2.1,25.2,4.2,50.5,6.3,76H115.3z"/>
<path class="st1" d="M92.5,44.8H63.7V27.1h28.8V44.8z"/>
<path class="st0" d="M101.7,91.3c6.6,0,12,5.3,12.1,11.9c-0.1,6.6-5.4,11.9-12,12c-6.6,0-12-5.3-12.1-11.9
	C89.7,96.7,95.1,91.3,101.7,91.3z"/>
<path class="st0" d="M49.8,103.2c0,6.6-5.2,11.9-11.8,12c0,0,0,0-0.1,0c-6.5,0.1-11.9-5.2-12-11.7c0-0.1,0-0.1,0-0.2
	c-0.1-6.5,5-11.9,11.5-12c0.1,0,0.2,0,0.3,0c6.5-0.1,11.9,5,12,11.6C49.8,103,49.8,103.1,49.8,103.2z"/>
<path class="st0" d="M92.5,18.9H63.6V3.8h28.8L92.5,18.9z"/>
<path class="st0" d="M92.6,53v15H63.7V53H92.6z"/>
<path class="st0" d="M100.4,19V3.8h28.2c-1,5.1-2,10.1-3,15.1h-25.2C100.4,18.9,100.4,19,100.4,19z"/>
<path class="st1" d="M32,27.1h23.5v17.8H33.8C33.2,38.9,32.6,33.1,32,27.1z"/>
<path class="st1" d="M124.1,27.1h-23.6V45h19.1c0.9-0.2,1.7-1,1.8-1.9C121.8,41.3,124.1,27.1,124.1,27.1z"/>
<path class="st0" d="M31.3,18.9c-0.5-5.1-1-10-1.5-15.1h25.8v15.1H31.3z"/>
<path class="st0" d="M36.1,68c-0.5-5-1-9.9-1.5-15h21v15H36.1z"/>
<path class="st0" d="M119,53h-18.6v15.3h15c0.8-0.2,1.4-0.9,1.4-1.6C117.2,65.2,119,53,119,53z"/>
</svg>
